<svg width="60" height="60" viewBox="0 0 60 60" fill="none" xmlns="http://www.w3.org/2000/svg">
<g opacity="0.5" clip-path="url(#clip0_5714_5856)">
<path fill-rule="evenodd" clip-rule="evenodd" d="M58.23 11.1491C58.7521 11.3575 59.1997 11.7175 59.5152 12.1827C59.8307 12.6479 59.9996 13.197 60 13.7591V46.2416C59.9996 46.8037 59.8307 47.3528 59.5152 47.818C59.1997 48.2832 58.7521 48.6433 58.23 48.8516L31.0425 59.7266C30.3721 59.9947 29.6242 59.9947 28.9538 59.7266L1.76625 48.8516C1.24488 48.6427 0.79802 48.2824 0.483227 47.8172C0.168434 47.3521 0.000130725 46.8033 0 46.2416L0 13.7591C0.000130725 13.1974 0.168434 12.6487 0.483227 12.1835C0.79802 11.7183 1.24488 11.3581 1.76625 11.1491L27.9113 0.690361L27.9488 0.679111L28.9538 0.274111C29.6253 0.0049838 30.3747 0.0049838 31.0463 0.274111L32.055 0.679111L32.0925 0.690361L58.23 11.1491ZM39.015 7.50036L15.9375 16.7291L6.9225 13.1254L3.75 14.3966V15.8966L28.125 25.6466V55.3541L30 56.1041L31.875 55.3541V25.6504L56.25 15.9004V14.4004L53.0775 13.1291L30 22.3541L20.985 18.7504L44.0625 9.52161L39.015 7.50036Z" fill="#A6A9C7"/>
</g>
<defs>
<clipPath id="clip0_5714_5856">
<rect width="60" height="60" fill="white"/>
</clipPath>
</defs>
</svg>
