<svg width="20" height="20" viewBox="0 0 20 20" fill="none" xmlns="http://www.w3.org/2000/svg">
<g opacity="0.3">
<path fill-rule="evenodd" clip-rule="evenodd" d="M18.3337 9.99935C18.3337 14.6017 14.6027 18.3327 10.0003 18.3327C5.39795 18.3327 1.66699 14.6017 1.66699 9.99935C1.66699 5.39698 5.39795 1.66602 10.0003 1.66602C14.6027 1.66602 18.3337 5.39698 18.3337 9.99935ZM13.0896 8.0886C13.415 7.76317 13.415 7.23553 13.0896 6.91009C12.7641 6.58466 12.2365 6.58466 11.9111 6.91009L10.0003 8.82084L8.08958 6.91009C7.76414 6.58466 7.23651 6.58466 6.91107 6.91009C6.58563 7.23553 6.58563 7.76317 6.91107 8.0886L8.82181 9.99935L6.91107 11.9101C6.58563 12.2355 6.58563 12.7632 6.91107 13.0886C7.23651 13.414 7.76414 13.414 8.08958 13.0886L10.0003 11.1779L11.9111 13.0886C12.2365 13.414 12.7641 13.414 13.0896 13.0886C13.415 12.7632 13.415 12.2355 13.0896 11.9101L11.1788 9.99935L13.0896 8.0886Z" fill="#333333"/>
</g>
</svg>
